PathFileType	4	(X/Y/Z)	C:\Users\°ÂÌØÂü\Desktop\20210112\bx_y_0_1802-Unnamed.trc
DataRate	CameraRate	NumFrames	NumMarkers	Units	OrigDataRate	OrigDataStartFrame	OrigNumFrames
50.00	50.00	       4	0	mm	50.00	94	       375
Frame#	Time	
		

94	1.860	-639.62427	-75.05152	1533.98779	-714.50159	78.04187	215.68733	-677.96570	284.16800	882.08722	-611.98755	216.23697	830.89691				-707.80975	250.09908	636.16364	-670.19958	80.38039	575.23212	-700.54541	246.92340	573.70862	-652.59723	16.78624	518.04266	-742.99683	254.42891	502.11200	-645.12250	208.30557	529.66217				-665.02777	-67.07811	162.92645	-707.77106	152.08011	214.57935	-769.33276	223.02737	205.57549	-882.59491	296.21002	144.62416	-603.42474	18.99895	167.33827	-675.30359	171.59724	156.77390	-595.01489	221.94643	173.78993	-666.69763	298.04803	161.05121	-560.27728	260.91016	165.37587	-527.90320	304.06342	146.53278	-559.90295	112.25941	1829.72363	-664.78546	287.64655	1528.57129	-623.70099	-78.25773	159.14278	-517.44183	-72.85994	143.16051	-628.65741	305.72632	163.32030	-600.52557	102.42738	1408.25366	-767.45874	-4.50068	208.25005	-794.20404	56.81636	175.13347	-795.71985	171.75182	184.80891	-848.79919	95.90528	1062.64624	-753.62158	-30.48574	488.64514	-876.09753	-78.81752	141.54425	-714.78815	-46.15128	716.01904	-698.51959	-27.75951	615.42230	-703.93085	-24.33875	566.33435	-560.39270	-41.76772	162.51660	-653.92004	-4.83851	1047.55444	-644.57013	217.16049	1068.62354	-618.66150	-8.08814	817.17499	-656.11713	147.32791	576.31567	-674.61407	56.15665	158.64012	-702.57330	272.62079	747.14850	-696.17798	-68.43207	861.23480	
95	1.880	-636.01251	-75.92178	1531.82336	-714.50159	78.04187	215.68733	-680.44891	283.88458	881.53564	-614.40698	215.48770	831.38544				-706.06036	250.55885	635.30212	-667.99530	79.76196	574.76990	-698.18500	247.47803	573.33698	-650.34485	16.04039	516.96490	-741.05219	255.12889	501.92557	-642.64380	208.53214	528.96301				-665.11914	-67.21818	162.94690	-707.62494	152.26900	214.61989	-769.22046	223.07497	205.27496	-882.56689	296.15085	144.56075	-603.49121	18.99484	167.49422	-675.27972	171.70821	156.87721	-594.92438	221.97090	173.84508	-666.72467	298.16653	160.96268	-560.30524	260.87750	165.27699	-527.99017	304.09348	146.41525	-553.38470	111.36281	1826.34351	-659.87494	286.87143	1526.68530	-623.60278	-78.24281	159.06844	-517.48254	-72.70038	142.91287	-628.87836	305.74399	163.31662	-598.04333	101.61607	1405.26160	-767.41901	-4.45661	208.25266	-794.22656	56.80760	175.25294	-795.35876	171.80048	184.59898	-853.02515	95.84741	1062.93787	-751.45477	-31.12383	488.34363	-875.85034	-78.68372	141.27127	-713.96234	-45.79725	715.05310	-695.59674	-29.28094	615.27411	-702.10760	-24.95779	565.35095	-560.30389	-41.49295	162.53079	-658.28589	-5.03007	1046.67639	-648.77051	216.92979	1067.24023	-620.77606	-8.14166	817.36084	-654.08752	147.69037	576.21191	-674.61407	56.15665	158.64012	-702.61169	273.10269	746.27228	-698.94427	-68.86255	860.79944	
96	1.900	-632.00262	-76.42956	1528.85718	-714.29773	77.63715	215.57167	-682.93469	284.12769	881.44647	-616.89423	215.26741	831.86646				-704.12280	251.60213	634.50903	-665.77173	78.91854	574.43365	-695.43854	248.37617	572.62091	-647.98547	15.41767	516.06616	-738.95300	255.50223	501.85641	-640.11932	209.08473	528.46387				-665.12585	-67.37556	162.75020	-707.25677	152.49405	214.64409	-769.10187	223.07001	205.39795	-882.49646	295.94296	144.45332	-603.54718	18.94676	167.52710	-675.29993	171.76360	156.99826	-594.88470	221.91466	173.76306	-666.60022	298.20023	160.95758	-560.21594	260.93375	165.29422	-527.99902	304.12732	146.59570	-546.54529	110.88500	1822.68213	-654.81348	286.21063	1524.31177	-623.61560	-78.34976	159.00105	-517.48254	-72.70038	142.91287	-628.73022	305.78226	163.29643	-596.58984	100.77837	1401.95691	-767.22406	-4.46138	208.15808	-794.14093	56.53118	175.26073	-795.27472	171.86609	184.71257	-856.97247	95.96214	1062.59302	-749.49591	-31.94524	488.30594	-875.82367	-78.74851	141.22487	-713.92175	-46.07071	714.04321	-694.29211	-29.12160	614.39972	-698.65894	-26.50410	565.57495	-560.42438	-41.41965	162.49278	-662.49066	-5.34660	1045.09277	-653.31744	215.34326	1065.37207	-623.03149	-8.22587	817.61365	-651.57458	148.17871	576.22650	-674.79156	56.04204	158.69949	-703.05792	273.52191	745.35181	-701.81537	-70.18487	860.27576	
97	1.920	-628.16083	-76.89018	1525.02051	-714.15466	77.53304	215.68137	-685.60596	284.16815	880.86719	-619.20746	214.98853	832.03021				-702.16736	252.50929	633.88708	-663.84406	77.95251	574.37085	-692.77863	249.14029	572.36578	-645.81848	14.43166	516.14050	-736.72742	256.25192	501.29996	-637.83002	209.97990	527.90808				-665.38086	-67.16491	162.70740	-707.22333	152.71463	214.47580	-769.04071	223.14928	205.35628	-882.59216	296.17233	144.59991	-603.59027	18.94875	167.47179	-675.46167	171.91884	156.75058	-594.92438	221.97090	173.84508	-666.57013	298.19846	160.82660	-560.22266	260.94510	165.44589	-528.09167	304.13754	146.53134	-539.71918	109.93719	1818.61987	-649.42749	285.67853	1521.75659	-623.62292	-78.56853	159.11058	-517.72736	-72.34167	142.40384	-628.76154	306.16431	162.88983	-594.39630	100.06170	1398.38745	-767.12512	-4.70438	208.10219	-794.23419	56.57676	175.31206	-795.36292	171.92712	184.72124	-860.72809	96.11022	1062.26025	-747.72687	-32.99150	487.94403	-876.09265	-78.76758	141.59384	-714.05359	-46.54993	712.94208	-692.16498	-30.21349	613.69641	-696.63470	-26.91412	564.52295	-560.34784	-41.36608	162.56891	-666.79510	-5.64949	1042.96313	-657.51947	214.83133	1063.27002	-625.22650	-8.07046	818.27502	-649.43610	148.56598	575.48718	-675.02966	55.89278	158.75243	-703.67334	274.35345	744.68085	-704.51837	-70.84822	859.43103	
